<?xml version="1.0" encoding="UTF-8"?>
<!DOCTYPE svg PUBLIC "-//W3C//DTD SVG 1.1//EN" "http://www.w3.org/Graphics/SVG/1.1/DTD/svg11.dtd">
<svg version="1.1" xmlns="http://www.w3.org/2000/svg" xmlns:xlink="http://www.w3.org/1999/xlink" x="0" y="0" width="200" height="100" viewBox="0, 0, 200, 100">
  <defs>
    <clipPath id="Clip_1">
      <path d="M53.5,2.333 L146.5,2.333 L146.5,95.333 L53.5,95.333 z M145.5,3.333 L54.5,3.333 L54.5,94.333 L145.5,94.333 L145.5,3.333 z"/>
    </clipPath>
    <filter id="Shadow_2">
      <feGaussianBlur in="SourceAlpha" stdDeviation="0"/>
      <feOffset dx="0" dy="0" result="offsetblur"/>
      <feFlood flood-color="#000000"/>
      <feComposite in2="offsetblur" operator="in"/>
    </filter>
    <clipPath id="Clip_3">
      <path d="M64,12.833 L137,12.833 L137,85.833 L64,85.833 z M136,13.833 L65,13.833 L65,84.833 L136,84.833 L136,13.833 z"/>
    </clipPath>
    <filter id="Shadow_4">
      <feGaussianBlur in="SourceAlpha" stdDeviation="0"/>
      <feOffset dx="0" dy="0" result="offsetblur"/>
      <feFlood flood-color="#000000"/>
      <feComposite in2="offsetblur" operator="in"/>
    </filter>
    <clipPath id="Clip_5">
      <path d="M64.5,13.333 L135.5,13.333 L135.5,84.333 L64.5,84.333 z M134.5,14.333 L65.5,14.333 L65.5,83.333 L134.5,83.333 L134.5,14.333 z"/>
    </clipPath>
    <filter id="Shadow_6">
      <feGaussianBlur in="SourceAlpha" stdDeviation="0"/>
      <feOffset dx="0" dy="0" result="offsetblur"/>
      <feFlood flood-color="#000000"/>
      <feComposite in2="offsetblur" operator="in"/>
    </filter>
  </defs>
  <g id="Layer_1">
    <g>
      <g>
        <path d="M145.5,3.333 L145.5,94.333 L54.5,94.333 L54.5,3.333 L145.5,3.333 z" clip-path="url(#Clip_1)" filter="url(#Shadow_2)" fill="rgba(0,0,0,0.75)"/>
        <path d="M65.5,14.333 L134.5,14.333 L134.5,83.333 L65.5,83.333 L65.5,14.333 z" fill="#FFFFFF"/>
        <path d="M145.5,3.333 L145.5,94.333 L54.5,94.333 L54.5,3.333 L145.5,3.333 z M134.5,14.333 L65.5,14.333 L65.5,83.333 L134.5,83.333 L134.5,14.333 z" fill="#197792"/>
      </g>
      <g>
        <path d="M136,13.833 L136,84.833 L65,84.833 L65,13.833 L136,13.833 z" clip-path="url(#Clip_3)" filter="url(#Shadow_4)" fill="rgba(0,0,0,0.75)"/>
        <path d="M66,14.833 L135,14.833 L135,83.833 L66,83.833 L66,14.833 z" fill="#FFFFFF"/>
        <path d="M66,14.833 L135,14.833 L135,83.833 L66,83.833 L66,14.833 z" fill-opacity="0" stroke="#000000" stroke-width="2"/>
      </g>
      <g>
        <path d="M134.5,14.333 L134.5,83.333 L65.5,83.333 L65.5,14.333 L134.5,14.333 z" clip-path="url(#Clip_5)" filter="url(#Shadow_6)" fill="rgba(0,0,0,0.75)"/>
        <path d="M65.5,14.333 L134.5,14.333 L134.5,83.333 L65.5,83.333 L65.5,14.333 z" fill="#FFFFFF"/>
        <path d="M134.5,14.333 L134.5,83.333 L65.5,83.333 L65.5,14.333 L134.5,14.333 z M124.5,24.333 L75.5,24.333 L75.5,73.333 L124.5,73.333 L124.5,24.333 z" fill="#5EC4DC"/>
      </g>
    </g>
    <text transform="matrix(1, 0, 0, 1, 172.738, 48.833)">
      <tspan x="-23.738" y="3.5" font-family="Verdana" font-size="10" fill="#1D1D1D">PADDING</tspan>
    </text>
    <text transform="matrix(1, 0, 0, 1, 27.596, 48.833)">
      <tspan x="-20.83" y="3.5" font-family="Verdana" font-size="10" fill="#1D1D1D">MARGIN</tspan>
    </text>
    <g>
      <path d="M7.75,55.833 L56.5,55.833" fill-opacity="0" stroke="#000000" stroke-width="1" stroke-miterlimit="6"/>
      <path d="M61.621,53.712 C62.793,54.884 62.793,56.783 61.621,57.955 C60.45,59.126 58.55,59.126 57.379,57.955 C56.207,56.783 56.207,54.884 57.379,53.712 C58.55,52.54 60.45,52.54 61.621,53.712" fill="#000000" fill-opacity="1" stroke="#000000" stroke-width="1" stroke-opacity="1"/>
    </g>
    <g>
      <path d="M196.976,55.833 L133.25,55.833" fill-opacity="0" stroke="#000000" stroke-width="1" stroke-miterlimit="6"/>
      <path d="M128.129,57.955 C126.957,56.783 126.957,54.884 128.129,53.712 C129.3,52.54 131.2,52.54 132.371,53.712 C133.543,54.884 133.543,56.783 132.371,57.955 C131.2,59.126 129.3,59.126 128.129,57.955" fill="#000000" fill-opacity="1" stroke="#000000" stroke-width="1" stroke-opacity="1"/>
    </g>
  </g>
</svg>
