<?xml version="1.0" encoding="UTF-8" standalone="no"?>
<svg width="241px" height="278px" viewBox="0 0 241 278" version="1.1" xmlns="http://www.w3.org/2000/svg" xmlns:xlink="http://www.w3.org/1999/xlink">
    <!-- Generator: Sketch 3.8.2 (29753) - http://www.bohemiancoding.com/sketch -->
    <title>icon-text-circle-color</title>
    <desc>Created with Sketch.</desc>
    <defs></defs>
    <g id="For-Page-Builder-Snippets" stroke="none" stroke-width="1" fill="none" fill-rule="evenodd">
        <g id="Features-/-Circle-/-Solid-Color" transform="translate(-6.789062, -0.187500)">
            <g id="Features-/-v1-Copy-6" stroke-width="1" fill-rule="evenodd" transform="translate(58.875000, 0.671875)">
                <circle id="Oval-1" fill="#1B8DB7" cx="66.078125" cy="66.109375" r="66"></circle>
                <path d="M80.6562242,48.109375 C81.5688275,48.109375 82.3671746,48.4126119 83.0512655,49.0190857 C83.7358385,49.6250774 84.078125,50.3843749 84.078125,51.2969782 C84.078125,52.1179837 83.784771,53.1019368 83.198063,54.2488376 C78.8703082,62.4482864 75.8396264,67.3497325 74.1060176,68.953176 C72.8414859,70.1391264 71.4205148,70.7321016 69.8431043,70.7321016 C68.2010933,70.7321016 66.7902462,70.1292435 65.610563,68.9235272 C64.4308798,67.717811 63.8410382,66.2871981 63.8410382,64.6316885 C63.8410382,62.9631624 64.4405217,61.581482 65.6394886,60.4866473 L78.1143853,49.1651601 C78.8833247,48.4613034 79.7306043,48.109375 80.6562242,48.109375 L80.6562242,48.109375 Z M62.8828771,68.3276595 C63.3910038,69.3183619 64.0849776,70.1656415 64.9647986,70.8694982 C65.8446195,71.573355 66.8256801,72.0687062 67.9079804,72.3555519 L67.9275052,73.7432585 C67.9795713,76.5201179 67.1354253,78.7818603 65.3950671,80.5284855 C63.654709,82.2751108 61.3833247,83.1484235 58.5809143,83.1484235 C56.9774707,83.1484235 55.5564997,82.8454276 54.318001,82.2394359 C53.0799845,81.6334442 52.0861484,80.8023147 51.3364928,79.7460476 C50.5868371,78.6902625 50.0230286,77.4975628 49.6450671,76.1679485 C49.2671057,74.8383342 49.078125,73.4045877 49.078125,71.866709 C49.1692407,71.9317916 49.4365616,72.1272806 49.8800878,72.4531759 C50.3231319,72.7790712 50.7271264,73.0690505 51.0920713,73.3231139 C51.4570162,73.5771772 51.8414859,73.8150904 52.2454804,74.0368535 C52.649957,74.2586166 52.9498192,74.3694981 53.1450671,74.3694981 C53.679709,74.3694981 54.0381457,74.1282103 54.2203771,73.6456345 C54.5462724,72.7855795 54.9211002,72.052315 55.3448605,71.4458412 C55.7686209,70.8398495 56.2215479,70.3444983 56.7036415,69.9597875 C57.1862173,69.5755589 57.7599087,69.2660548 58.4247159,69.0312752 C59.0895231,68.7964956 59.7608385,68.6304143 60.4386622,68.5330314 C61.1164859,68.4351664 61.9312242,68.3667091 62.8828771,68.3276595 L62.8828771,68.3276595 Z" id="Shape" fill="#FFFFFF"></path>
                <text id="DESIGN" fill="#636363" font-family="Helvetica" font-size="26" font-weight="normal">
                    <tspan x="16.2363281" y="188.109375">DESIGN</tspan>
                </text>
            </g>
            <text id="Lorem-ipsum-dolor-si" font-family="Raleway-Light, Raleway" font-size="14" font-weight="300" line-spacing="24" fill="#4A4A4A">
                <tspan x="37.9639225" y="221.235295">Lorem ipsum dolor sit amet, </tspan>
                <tspan x="7.15692248" y="245.235295">consectetuer adipiscing elit, sed diam </tspan>
                <tspan x="12.0779225" y="269.235295">nonummy nibh euismod tincidunt ut</tspan>
            </text>
        </g>
    </g>
</svg>