<?xml version="1.0" encoding="UTF-8" standalone="no"?>
<svg width="241px" height="254px" viewBox="0 0 241 254" version="1.1" xmlns="http://www.w3.org/2000/svg" xmlns:xlink="http://www.w3.org/1999/xlink">
    <!-- Generator: Sketch 3.8.2 (29753) - http://www.bohemiancoding.com/sketch -->
    <title>icon-text-color</title>
    <desc>Created with Sketch.</desc>
    <defs></defs>
    <g id="For-Page-Builder-Snippets" stroke="none" stroke-width="1" fill="none" fill-rule="evenodd">
        <g id="Features-/-Colored-Icon" transform="translate(-7.000000, -1.000000)">
            <g id="Features-/-Circle-/-Solid-Color-Copy-7" stroke-width="1" fill-rule="evenodd" transform="translate(77.000000, 0.000000)">
                <g id="Features-/-v1-Copy-6" transform="translate(0.875000, 0.671875)">
                    <path d="M79.7650413,0.307171306 C81.6570635,0.307171306 83.3122082,0.935846389 84.7304752,2.19319656 C86.1497417,3.44954724 86.859375,5.02373366 86.859375,6.91575581 C86.859375,8.61787611 86.2511893,10.6578218 85.0348179,13.0355929 C76.0624548,30.0348072 69.779202,40.1965554 66.1850594,43.5208373 C63.5634143,45.9795666 60.6174367,47.2089312 57.3471268,47.2089312 C53.9428861,47.2089312 51.0178977,45.9590771 48.5721617,43.4593691 C46.1264256,40.959661 44.9035576,37.9936939 44.9035576,34.5614677 C44.9035576,31.1022556 46.1464153,28.237736 48.6321307,25.9679091 L74.4952647,2.49604004 C76.0894409,1.03679422 77.8460331,0.307171306 79.7650413,0.307171306 L79.7650413,0.307171306 Z M42.9170842,42.2240075 C43.9705398,44.277946 45.4092962,46.0345381 47.2333536,47.493784 C49.0574109,48.9530298 51.0913598,49.979999 53.3352002,50.5746917 L53.3756792,53.4517048 C53.4836235,59.2087294 51.7335279,63.8978059 48.1253926,67.5189344 C44.5172572,71.1400629 39.8081909,72.9506272 33.9981934,72.9506272 C30.6739114,72.9506272 27.7279339,72.3224518 25.1602608,71.0661012 C22.5935873,69.8097505 20.5331521,68.086641 18.9789553,65.8967728 C17.4247585,63.7079041 16.2558626,61.235182 15.4722676,58.4786067 C14.6886725,55.7220314 14.296875,52.7495676 14.296875,49.5612155 C14.4857774,49.6961457 15.039991,50.1014363 15.9595158,50.7770871 C16.8780411,51.4527379 17.7156082,52.0539272 18.4722172,52.5806549 C19.2288262,53.1073827 20.0259143,53.6006278 20.8634814,54.0603902 C21.702048,54.5201526 22.3237268,54.7500337 22.7285176,54.7500337 C23.8369447,54.7500337 24.5800607,54.2497923 24.9578654,53.2493094 C25.6335163,51.4662309 26.4106147,49.9460166 27.2891606,48.6886664 C28.1677066,47.4323157 29.1067213,46.4053465 30.1062048,45.6077587 C31.1066878,44.8111704 32.2960731,44.1695021 33.6743608,43.6827536 C35.0526485,43.1960052 36.4444292,42.8516831 37.849703,42.6497875 C39.2549768,42.4468923 40.9441038,42.3049657 42.9170842,42.2240075 L42.9170842,42.2240075 Z" id="Shape" fill="#1B8DB7"></path>
                    <text id="DESIGN" fill="#636363" font-family="Helvetica" font-size="26" font-weight="normal">
                        <tspan x="0.236328125" y="159.109375">DESIGN</tspan>
                    </text>
                </g>
            </g>
            <text id="Lorem-ipsum-dolor-si" font-family="Raleway-Light, Raleway" font-size="14" font-weight="300" line-spacing="24" fill="#4A4A4A">
                <tspan x="37.9639225" y="199">Lorem ipsum dolor sit amet, </tspan>
                <tspan x="7.15692248" y="223">consectetuer adipiscing elit, sed diam </tspan>
                <tspan x="12.0779225" y="247">nonummy nibh euismod tincidunt ut</tspan>
            </text>
        </g>
    </g>
</svg>