<?xml version="1.0" encoding="UTF-8" standalone="no"?>
<svg width="241px" height="276px" viewBox="0 0 241 276" version="1.1" xmlns="http://www.w3.org/2000/svg" xmlns:xlink="http://www.w3.org/1999/xlink">
    <!-- Generator: Sketch 3.8.2 (29753) - http://www.bohemiancoding.com/sketch -->
    <title>icon-text-circle-gray-border</title>
    <desc>Created with Sketch.</desc>
    <defs>
        <circle id="path-1" cx="66" cy="66" r="66"></circle>
        <mask id="mask-2" maskContentUnits="userSpaceOnUse" maskUnits="objectBoundingBox" x="0" y="0" width="132" height="132" fill="white">
            <use xlink:href="#path-1"></use>
        </mask>
    </defs>
    <g id="For-Page-Builder-Snippets" stroke="none" stroke-width="1" fill="none" fill-rule="evenodd">
        <g id="Features-/-v1" transform="translate(-7.000000, 0.000000)">
            <g id="Group-3-Copy-3" stroke-width="1" fill-rule="evenodd" transform="translate(61.078125, 0.109375)" stroke="#F0F0F0">
                <use id="Oval-1" mask="url(#mask-2)" stroke-width="12" xlink:href="#path-1"></use>
            </g>
            <path d="M141.656224,48.109375 C142.568827,48.109375 143.367175,48.4126119 144.051265,49.0190857 C144.735838,49.6250774 145.078125,50.3843749 145.078125,51.2969782 C145.078125,52.1179837 144.784771,53.1019368 144.198063,54.2488376 C139.870308,62.4482864 136.839626,67.3497325 135.106018,68.953176 C133.841486,70.1391264 132.420515,70.7321016 130.843104,70.7321016 C129.201093,70.7321016 127.790246,70.1292435 126.610563,68.9235272 C125.43088,67.717811 124.841038,66.2871981 124.841038,64.6316885 C124.841038,62.9631624 125.440522,61.581482 126.639489,60.4866473 L139.114385,49.1651601 C139.883325,48.4613034 140.730604,48.109375 141.656224,48.109375 L141.656224,48.109375 Z M123.882877,68.3276595 C124.391004,69.3183619 125.084978,70.1656415 125.964799,70.8694982 C126.844619,71.573355 127.82568,72.0687062 128.90798,72.3555519 L128.927505,73.7432585 C128.979571,76.5201179 128.135425,78.7818603 126.395067,80.5284855 C124.654709,82.2751108 122.383325,83.1484235 119.580914,83.1484235 C117.977471,83.1484235 116.5565,82.8454276 115.318001,82.2394359 C114.079985,81.6334442 113.086148,80.8023147 112.336493,79.7460476 C111.586837,78.6902625 111.023029,77.4975628 110.645067,76.1679485 C110.267106,74.8383342 110.078125,73.4045877 110.078125,71.866709 C110.169241,71.9317916 110.436562,72.1272806 110.880088,72.4531759 C111.323132,72.7790712 111.727126,73.0690505 112.092071,73.3231139 C112.457016,73.5771772 112.841486,73.8150904 113.24548,74.0368535 C113.649957,74.2586166 113.949819,74.3694981 114.145067,74.3694981 C114.679709,74.3694981 115.038146,74.1282103 115.220377,73.6456345 C115.546272,72.7855795 115.9211,72.052315 116.344861,71.4458412 C116.768621,70.8398495 117.221548,70.3444983 117.703642,69.9597875 C118.186217,69.5755589 118.759909,69.2660548 119.424716,69.0312752 C120.089523,68.7964956 120.760838,68.6304143 121.438662,68.5330314 C122.116486,68.4351664 122.931224,68.3667091 123.882877,68.3276595 L123.882877,68.3276595 Z" id="Shape" fill="#1B8DB7" fill-rule="evenodd"></path>
            <text id="DESIGN" fill="#636363" fill-rule="evenodd" font-family="Helvetica" font-size="26" font-weight="normal">
                <tspan x="77.2363281" y="188.109375">DESIGN</tspan>
            </text>
            <text id="Lorem-ipsum-dolor-si" font-family="Raleway-Light, Raleway" font-size="14" font-weight="300" line-spacing="24" fill="#4A4A4A">
                <tspan x="37.606" y="219.235295">Lorem ipsum dolor sit amet, </tspan>
                <tspan x="6.799" y="243.235295">consectetuer adipiscing elit, sed diam </tspan>
                <tspan x="11.72" y="267.235295">nonummy nibh euismod tincidunt ut</tspan>
            </text>
        </g>
    </g>
</svg>