<?xml version="1.0" encoding="UTF-8" standalone="no"?>
<svg width="241px" height="276px" viewBox="0 0 241 276" version="1.1" xmlns="http://www.w3.org/2000/svg" xmlns:xlink="http://www.w3.org/1999/xlink">
    <!-- Generator: Sketch 3.8.2 (29753) - http://www.bohemiancoding.com/sketch -->
    <title>icon-text-color-border</title>
    <desc>Created with Sketch.</desc>
    <defs>
        <circle id="path-1" cx="66" cy="66" r="66"></circle>
        <mask id="mask-2" maskContentUnits="userSpaceOnUse" maskUnits="objectBoundingBox" x="0" y="0" width="132" height="132" fill="white">
            <use xlink:href="#path-1"></use>
        </mask>
    </defs>
    <g id="For-Page-Builder-Snippets" stroke="none" stroke-width="1" fill="none" fill-rule="evenodd">
        <g id="Features-/-Circle-/-Colored-Border-&amp;-Icon" transform="translate(-7.523438, -0.597656)">
            <g id="Features-/-v1-Copy-3" transform="translate(-0.281250, 0.750000)">
                <g id="Group-3-Copy-3" transform="translate(62.078125, 0.109375)" stroke="#1B8DB7" stroke-width="12">
                    <use id="Oval-1" mask="url(#mask-2)" xlink:href="#path-1"></use>
                </g>
                <path d="M142.656224,48.109375 C143.568827,48.109375 144.367175,48.4126119 145.051265,49.0190857 C145.735838,49.6250774 146.078125,50.3843749 146.078125,51.2969782 C146.078125,52.1179837 145.784771,53.1019368 145.198063,54.2488376 C140.870308,62.4482864 137.839626,67.3497325 136.106018,68.953176 C134.841486,70.1391264 133.420515,70.7321016 131.843104,70.7321016 C130.201093,70.7321016 128.790246,70.1292435 127.610563,68.9235272 C126.43088,67.717811 125.841038,66.2871981 125.841038,64.6316885 C125.841038,62.9631624 126.440522,61.581482 127.639489,60.4866473 L140.114385,49.1651601 C140.883325,48.4613034 141.730604,48.109375 142.656224,48.109375 L142.656224,48.109375 Z M124.882877,68.3276595 C125.391004,69.3183619 126.084978,70.1656415 126.964799,70.8694982 C127.844619,71.573355 128.82568,72.0687062 129.90798,72.3555519 L129.927505,73.7432585 C129.979571,76.5201179 129.135425,78.7818603 127.395067,80.5284855 C125.654709,82.2751108 123.383325,83.1484235 120.580914,83.1484235 C118.977471,83.1484235 117.5565,82.8454276 116.318001,82.2394359 C115.079985,81.6334442 114.086148,80.8023147 113.336493,79.7460476 C112.586837,78.6902625 112.023029,77.4975628 111.645067,76.1679485 C111.267106,74.8383342 111.078125,73.4045877 111.078125,71.866709 C111.169241,71.9317916 111.436562,72.1272806 111.880088,72.4531759 C112.323132,72.7790712 112.727126,73.0690505 113.092071,73.3231139 C113.457016,73.5771772 113.841486,73.8150904 114.24548,74.0368535 C114.649957,74.2586166 114.949819,74.3694981 115.145067,74.3694981 C115.679709,74.3694981 116.038146,74.1282103 116.220377,73.6456345 C116.546272,72.7855795 116.9211,72.052315 117.344861,71.4458412 C117.768621,70.8398495 118.221548,70.3444983 118.703642,69.9597875 C119.186217,69.5755589 119.759909,69.2660548 120.424716,69.0312752 C121.089523,68.7964956 121.760838,68.6304143 122.438662,68.5330314 C123.116486,68.4351664 123.931224,68.3667091 124.882877,68.3276595 L124.882877,68.3276595 Z" id="Shape" fill="#1B8DB7"></path>
                <text id="DESIGN" fill="#636363" font-family="Helvetica" font-size="26" font-weight="normal">
                    <tspan x="78.2363281" y="188.109375">DESIGN</tspan>
                </text>
                <text id="Lorem-ipsum-dolor-si" font-family="Raleway-Light, Raleway" font-size="14" font-weight="300" line-spacing="24" fill="#4A4A4A">
                    <tspan x="38.606" y="219.235295">Lorem ipsum dolor sit amet, </tspan>
                    <tspan x="7.799" y="243.235295">consectetuer adipiscing elit, sed diam </tspan>
                    <tspan x="12.72" y="267.235295">nonummy nibh euismod tincidunt ut</tspan>
                </text>
            </g>
        </g>
    </g>
</svg>